<svg version="1.2" xmlns="http://www.w3.org/2000/svg" viewBox="0 0 723 365" width="723" height="365">
	<title>Profil_info</title>
	<style>
		.s0 { fill: #ffffff } 
		.s1 { fill: #e6e6e6 } 
		.s2 { fill: #f2f2f2 } 
		.s3 { fill: #6c63ff } 
		.s4 { fill: #2f2e41 } 
		.s5 { fill: #ffb6b6 } 
		.s6 { fill: #3f3d56 } 
	</style>
	<path class="s0" d="m652.7 296.2h-549.3c-3.5 0-6.9-0.7-10.2-2-3.2-1.3-6.1-3.3-8.5-5.7-2.5-2.5-4.5-5.4-5.8-8.6-1.3-3.2-2-6.7-2-10.2v-208.4c0-3.5 0.7-6.9 2-10.1 1.3-3.2 3.3-6.2 5.8-8.6 2.4-2.5 5.3-4.4 8.5-5.8 3.3-1.3 6.7-2 10.2-2h549.3c3.5 0 6.9 0.7 10.1 2 3.2 1.4 6.1 3.3 8.6 5.8 2.5 2.4 4.4 5.4 5.7 8.6 1.4 3.2 2.1 6.6 2.1 10.1v208.4c0 3.5-0.7 7-2.1 10.2-1.3 3.2-3.2 6.1-5.7 8.6-2.5 2.4-5.4 4.4-8.6 5.7-3.2 1.3-6.6 2-10.1 2z"/>
	<path class="s1" d="m652.7 296.2h-549.3c-3.5 0-6.9-0.7-10.2-2-3.2-1.3-6.1-3.3-8.5-5.7-2.5-2.5-4.5-5.4-5.8-8.6-1.3-3.2-2-6.7-2-10.2v-208.4c0-3.5 0.7-6.9 2-10.1 1.3-3.2 3.3-6.2 5.8-8.6 2.4-2.5 5.3-4.4 8.5-5.8 3.3-1.3 6.7-2 10.2-2h549.3c3.5 0 6.9 0.7 10.1 2 3.2 1.4 6.1 3.3 8.6 5.8 2.5 2.4 4.4 5.4 5.7 8.6 1.4 3.2 2.1 6.6 2.1 10.1v208.4c0 3.5-0.7 7-2.1 10.2-1.3 3.2-3.2 6.1-5.7 8.6-2.5 2.4-5.4 4.4-8.6 5.7-3.2 1.3-6.6 2-10.1 2zm-549.3-259.1c-3.2 0-6.3 0.6-9.3 1.9-2.9 1.2-5.6 3-7.8 5.2-2.3 2.3-4.1 4.9-5.3 7.9-1.2 2.9-1.8 6-1.8 9.2v208.4c0 3.2 0.6 6.4 1.8 9.3 1.2 2.9 3 5.6 5.3 7.8 2.2 2.3 4.9 4.1 7.8 5.3 3 1.2 6.1 1.8 9.3 1.8h549.3c3.2 0 6.3-0.6 9.2-1.8 3-1.2 5.6-3 7.9-5.3 2.2-2.2 4-4.9 5.2-7.8 1.2-2.9 1.9-6.1 1.9-9.3v-78.5c0-20.3-4-40.3-11.8-59-7.7-18.7-19-35.7-33.3-50-14.4-14.3-31.3-25.6-50-33.4-18.7-7.7-38.7-11.7-59-11.7z"/>
	<path class="s2" d="m296.6 161.3c0 5.1-0.5 10.3-1.4 15.4-0.9 5-2.3 10-4.2 14.8-1.8 4.9-4.1 9.5-6.8 13.9-2.7 4.4-5.8 8.5-9.2 12.4q-0.8 0.8-1.5 1.6-0.8 0.8-1.6 1.6-0.7 0.8-1.5 1.6-0.8 0.7-1.7 1.5-0.8 0.7-1.7 1.5-0.8 0.7-1.7 1.4-0.9 0.7-1.8 1.4-0.9 0.7-1.8 1.4-2.5 1.8-5.2 3.5-3.2 2-6.6 3.7-2.5 1.2-5.1 2.3-3.9 1.6-7.9 2.9-4.1 1.2-8.2 2-4.1 0.9-8.3 1.3-4.2 0.4-8.4 0.4-2.4 0-4.8-0.1-2.4-0.2-4.7-0.4-2.4-0.3-4.7-0.7-2.4-0.4-4.7-0.9-1.1-0.3-2.2-0.5-1-0.3-2.1-0.6-1-0.3-2.1-0.6-1-0.4-2.1-0.7-1.6-0.6-3.2-1.2-2.4-0.9-4.7-2-2.4-1.1-4.7-2.3-2.2-1.2-4.4-2.6-2.2-1.3-4.3-2.8c-24.2-17-37.7-45.4-35.7-74.9 1.9-29.5 19.2-55.8 45.4-69.4 26.2-13.6 57.7-12.6 82.9 2.8 25.3 15.3 40.7 42.7 40.7 72.3z"/>
	<path class="s3" d="m549.9 98.4h-146.3c-1.2 0-2.4-0.5-3.2-1.4-0.9-0.8-1.4-2-1.4-3.2 0-1.2 0.5-2.4 1.4-3.3 0.8-0.8 2-1.3 3.2-1.3h146.3c1.2 0 2.4 0.5 3.2 1.3 0.9 0.9 1.4 2.1 1.4 3.3 0 1.2-0.5 2.4-1.4 3.2-0.8 0.9-2 1.4-3.2 1.4z"/>
	<path class="s1" d="m549.9 160.6h-146.3c-1.2 0-2.4-0.5-3.2-1.4-0.9-0.8-1.4-2-1.4-3.2 0-1.3 0.5-2.4 1.4-3.3 0.8-0.9 2-1.3 3.2-1.3h146.3c1.2 0 2.3 0.4 3.2 1.3 0.9 0.9 1.4 2 1.4 3.3 0 1.2-0.5 2.4-1.4 3.2-0.9 0.9-2 1.4-3.2 1.4z"/>
	<path class="s1" d="m549.9 222.8h-146.3c-1.2 0-2.4-0.5-3.2-1.4-0.9-0.9-1.4-2-1.4-3.3 0-1.2 0.5-2.3 1.4-3.2 0.8-0.9 2-1.4 3.2-1.4h146.3c1.2 0 2.4 0.5 3.2 1.4 0.9 0.9 1.4 2 1.4 3.2 0 1.3-0.5 2.4-1.4 3.3-0.8 0.9-2 1.4-3.2 1.4z"/>
	<path class="s1" d="m184.2 360.2c-16.5-22-26-46.5-26.3-74.5q-0.4-1.2-0.4-2.4 0.1-1.2 0.6-2.3 0.5-1 1.4-1.8 0.9-0.8 2-1.2l56.3-20q1.1-0.4 2.3-0.3 1.2 0.1 2.3 0.6 1.1 0.5 1.9 1.4 0.8 0.9 1.2 2l26.4 74.5q0.4 1.2 0.3 2.4-0.1 1.2-0.6 2.2-0.5 1.1-1.4 1.9-0.9 0.8-2 1.2l-56.3 20q-1.1 0.3-2.3 0.3-1.2-0.1-2.3-0.6-1.1-0.5-1.9-1.4-0.8-0.9-1.2-2z"/>
	<path class="s0" d="m180.6 336.1c-10-10-14.2-27.9-17-47.9q-0.3-1-0.3-2.1 0.1-1.2 0.6-2.2 0.4-1 1.3-1.8 0.8-0.7 1.9-1.1l48.3-17.1q1.1-0.4 2.2-0.3 1.1 0.1 2.1 0.5 1.1 0.5 1.8 1.4 0.8 0.8 1.1 1.8l23.5 66.4q0.4 1 0.3 2.1 0 1.2-0.5 2.2-0.5 1-1.3 1.7-0.9 0.8-1.9 1.2l-30 10.6c-3.1 1.1-6.4 1.5-9.7 1.4-3.3-0.2-6.6-1-9.5-2.4-3-1.5-5.7-3.5-7.9-5.9-2.2-2.5-3.9-5.3-5-8.5z"/>
	<path class="s3" d="m223.3 303.1l-37.7 13.4c-0.6 0.2-1.2 0.2-1.8-0.1-0.6-0.2-1-0.7-1.3-1.3-0.2-0.6-0.1-1.3 0.1-1.9 0.3-0.5 0.8-1 1.4-1.2l37.7-13.4c0.6-0.3 1.2-0.2 1.8 0 0.6 0.3 1 0.8 1.2 1.4 0.3 0.6 0.2 1.3 0 1.8-0.3 0.6-0.8 1.1-1.4 1.3z"/>
	<path class="s3" d="m189.5 301.2l-8.3 2.9c-0.6 0.2-1.3 0.2-1.8-0.1-0.6-0.2-1.1-0.7-1.3-1.3-0.2-0.6-0.2-1.3 0.1-1.9 0.3-0.5 0.8-1 1.4-1.2l8.3-3c0.6-0.2 1.2-0.1 1.8 0.1 0.6 0.3 1 0.8 1.2 1.4 0.2 0.6 0.2 1.3-0.1 1.8-0.2 0.6-0.7 1.1-1.3 1.3z"/>
	<path class="s3" d="m230.4 322.9l-37.7 13.5c-0.6 0.2-1.2 0.2-1.8-0.1-0.6-0.3-1-0.8-1.3-1.4-0.2-0.6-0.1-1.2 0.1-1.8 0.3-0.6 0.8-1 1.4-1.2l37.7-13.5c0.6-0.2 1.2-0.2 1.8 0.1 0.6 0.3 1 0.8 1.2 1.4 0.3 0.6 0.2 1.2-0.1 1.8-0.2 0.6-0.7 1-1.3 1.2z"/>
	<path class="s3" d="m226.8 313l-37.6 13.5c-0.6 0.2-1.3 0.1-1.9-0.1-0.5-0.3-1-0.8-1.2-1.4-0.2-0.6-0.2-1.3 0.1-1.8 0.3-0.6 0.8-1 1.3-1.3l37.7-13.4c0.6-0.2 1.3-0.2 1.9 0.1 0.5 0.3 1 0.7 1.2 1.3 0.2 0.6 0.2 1.3-0.1 1.9-0.3 0.6-0.8 1-1.4 1.2z"/>
	<path class="s4" d="m192.6 123c1.3 9.9 8.1 18.1 18.1 18.1 2.4 0 4.7-0.5 6.9-1.4 2.2-0.9 4.2-2.3 5.9-3.9 1.6-1.7 3-3.7 3.9-5.9 0.9-2.2 1.3-4.5 1.3-6.9 0-10-8.1-17.1-18-18.1-10.6-0.9-19.6 5.4-18.1 18.1z"/>
	<path class="s4" d="m226.4 244.7q-4.1 0.7-8.3 1-4.2 0.3-8.4 0.2-4.2-0.1-8.4-0.7-4.1-0.5-8.2-1.4c5.2-2.9 20.9-1.1 33.3 0.9z"/>
	<path class="s5" d="m156.1 276.4l8.7-20.9 6.8 3.8-4.1 21.3c0.8 2.8 0.1 5.7-2 7.7-2.1 2-5.2 2.6-7.9 1.7-2.7-1-4.6-3.5-4.9-6.3-0.3-2.9 1-5.7 3.4-7.3z"/>
	<path class="s3" d="m245.9 219.7c-0.3 7.3-0.8 14.3-1.1 19.6q-3.9 1.6-7.9 2.9-4.1 1.2-8.2 2-4.1 0.9-8.3 1.3-4.2 0.4-8.4 0.4-2.4 0-4.8-0.1-2.4-0.2-4.7-0.4-2.4-0.3-4.7-0.7-2.4-0.4-4.7-0.9-1.1-0.3-2.2-0.5-1-0.3-2.1-0.6-1-0.3-2.1-0.6-1-0.4-2.1-0.7 0.2-0.1 0.3-0.2 0.2-0.1 0.3-0.2 0.2 0 0.3-0.1 0.2-0.1 0.4-0.1c4.1-1.4 0-2.7 0-4 0.2-4.9 1.5-10.8 3.2-16.4l-7.7 19.8-4 10.3c0 0 0.1 8.9-2.4 6.2-2.6-2.7-2.4 6.1-2.4 6.1q-0.3 0.2-0.6 0.4-0.3 0.2-0.5 0.5-0.3 0.3-0.5 0.6-0.2 0.2-0.5 0.5 0 0.2-0.1 0.3-0.1 0.2-0.1 0.3 0 0.2 0 0.4 0 0.1 0 0.3 0 0.1 0.1 0.2 0.1 0.1 0.2 0.2 0 0.2 0.1 0.2 0.1 0.1 0.3 0.2c1.7 1.2-0.8 4.3-1.9 5.5-0.3 0.3-0.5 0.5-0.5 0.5l-10.6-0.7v-0.2c0-1.3 0.3-7.9 1.9-9.5 1.8-1.7 1-4.5 1-4.5 0 0 4.7-4.1 1.5-7.5-1.2-1.4-0.7-9.5 0.9-20 3.4-23.2 11.5-58 15-57.5q0.6-2.6 1.8-5 1.3-2.4 3.1-4.4 1.9-2 4.2-3.4 2.3-1.4 4.9-2.1l11.5-3.1 2-8.1h16.2l2.8 5.3 11.8 5.3 0.1 0.1 0.4 0.1 0.1 0.5q0 0 0 0l6.6 20.6c2.9 3.4 2.8 23.1 2.1 40.9z"/>
	<path class="s5" d="m273.4 261.2l-11-19.9 7.3-3 14.1 16.6c2.6 1 4.5 3.5 4.7 6.4 0.3 2.9-1.1 5.6-3.6 7.1-2.5 1.5-5.6 1.5-8 0-2.4-1.6-3.8-4.4-3.5-7.2z"/>
	<path class="s3" d="m236.6 157.3c1.9 3.5 19.7 12.5 16.6 21.6 0 0 16.8 52.3 18.9 52 2.2-0.4 4.3 5.1 4.3 5.1 0 0-0.4 3.5 0.9 2 1.4-1.5 1.1 2.4 1.1 2.4 0 0-0.7 3.4 1 2.5 1.8-1-0.5 5.5-0.5 5.5l-10.3 4.9-2-2.9c0 0-4.2-0.8-2.2-1.5 1.9-0.6-1.9-2.7-1.9-2.7 0 0-4-2.8-3.5-7.3 0.6-4.5-10.4-13.4-10.4-13.4-7.5-14.9-11.7-30.2-11.6-46z"/>
	<path fill-rule="evenodd" class="s5" d="m212.7 142.1c-8.9 0-16-7.1-16-16 0-8.8 7.1-16 16-16 8.8 0 16 7.2 16 16 0 8.9-7.2 16-16 16z"/>
	<path class="s4" d="m196.1 127.9c0.5 3.4 3.5 8.3 2.8 8.3-0.7 0-5.7-14.3-0.7-15.3 3.6-0.7 4.4-0.1 7.7-1.5l-0.5 0.4c2.3 1.6 5.3 0.6 7.9-0.4 2.5-1 5.6-2 7.8-0.4 1.4 1 2 2.7 2.9 4.2 0.8 1.5 2.4 2.9 4.1 2.5q0.5-0.2 0.9-0.6 0.4-0.3 0.7-0.7 0.2-0.5 0.4-1 0.1-0.5 0.1-1c0-1.4-1.8-2.7-1.2-3.9 1.8-3.7 0.2-6.1-3.7-7.9q-2.2-0.3-4.3-0.6 0.3-0.4 0.6-0.8 0.3-0.3 0.6-0.7 0.4-0.3 0.7-0.6 0.4-0.3 0.8-0.6-0.2-0.4-0.4-0.8-0.2-0.4-0.5-0.7-0.3-0.4-0.6-0.7-0.3-0.3-0.7-0.6-0.4-0.2-0.9-0.3-0.5-0.2-1-0.2-0.4-0.1-0.9-0.1-0.5 0-1 0.1-4.4 0.2-8.8 0.4-0.8 0-1.6 0.1-0.9 0.1-1.7 0.2-0.8 0.2-1.5 0.4-0.8 0.3-1.6 0.6c-2.4 1.2-4 3.6-5.1 6.1-2.6 5.6-2.2 10-1.3 16.1z"/>
	<path class="s1" d="m596.7 117.4h-240.8q-0.4 0-0.7-0.3-0.3-0.3-0.3-0.7 0-0.5 0.3-0.7 0.3-0.3 0.7-0.3h240.8q0.4 0 0.7 0.3 0.3 0.2 0.3 0.7 0 0.4-0.3 0.7-0.3 0.3-0.7 0.3z"/>
	<path class="s1" d="m596.7 179.4h-240.8q-0.4 0-0.7-0.3-0.3-0.3-0.3-0.7 0-0.5 0.3-0.7 0.3-0.3 0.7-0.3h240.8q0.4 0 0.7 0.3 0.3 0.2 0.3 0.7 0 0.4-0.3 0.7-0.3 0.3-0.7 0.3z"/>
	<path class="s1" d="m596.7 241.4h-240.8q-0.4 0-0.7-0.3-0.3-0.3-0.3-0.7 0-0.5 0.3-0.7 0.3-0.3 0.7-0.3h240.8q0.4 0 0.7 0.3 0.3 0.2 0.3 0.7 0 0.4-0.3 0.7-0.3 0.3-0.7 0.3z"/>
	<path class="s1" d="m632.6 237.4q-3.3 0-6.5-0.6-3.3-0.6-6.3-1.7-3.1-1.1-5.9-2.8-2.9-1.7-5.4-3.8c-2.2-1.9-4.6-5.2-7-9.9q-1.2-2.2-1.9-4.7-0.6-2.4-0.7-5-0.1-2.5 0.4-5 0.4-2.5 1.4-4.8-0.5 0.5-1 1-0.5 0.4-1 0.9-0.6 0.4-1.1 0.8-0.6 0.4-1.2 0.8l-0.7 0.5-0.1-0.9q0-0.9 0-1.8c0-3.5 2.6-7 1.4-10.2-5.1-13.6-21.3-27 2.2-48 2.1-1.9-0.8-5.8-0.8-8.7 0-28.8 40.7-78.5 52.2-52.2 14.2 32.5 38.6 29.1 49.5 35.8l0.1 0.4-0.4 0.2q-0.9 0.4-1.8 0.7-0.9 0.3-1.9 0.6-0.9 0.2-1.8 0.4-1 0.2-1.9 0.3 1 0.2 2 0.4 1 0.1 2.1 0.2 1 0.1 2.1 0.1 1 0 2 0h0.5l0.1 0.4q0.4 1.5 0.7 3.1 0.2 1.6 0.4 3.2 0.2 1.6 0.3 3.2 0.1 1.6 0.1 3.2v0.4q0 2.5 0.5 4.8 0.5 2.4 1.5 4.7 1 2.2 2.4 4.1 1.4 2 3.3 3.6 2.8 2.7 5.1 5.8 2.2 3.1 3.8 6.7 1.5 3.5 2.3 7.3 0.8 3.8 0.9 7.6c0 6.1-4.2 14.1-7.7 19.7q-0.6 1.1-1.5 2-0.9 0.9-2 1.6-1 0.7-2.2 1.1-1.2 0.4-2.5 0.6-1.1 0.1-2.3 0-1.2-0.1-2.4-0.4-1.1-0.4-2.1-1-1.1-0.6-2-1.4 0.7 1.2 1.4 2.4 0.7 1.2 1.5 2.3 0.8 1.1 1.7 2.2 0.8 1.1 1.8 2l0.5 0.5-0.6 0.4q-2.1 1.2-4.4 2.2-2.2 0.9-4.6 1.5-2.4 0.7-4.8 1-2.4 0.3-4.8 0.3h-0.4q-3.6 0-7.2 0.7-3.5 0.6-6.8 2-3.4 1.3-6.4 3.3-3 2-5.5 4.6-2.6 2.7-5.7 4.8-3.1 2.1-6.5 3.5-3.4 1.5-7.1 2.2-3.6 0.8-7.3 0.8z"/>
	<path class="s6" d="m619.8 296q-0.1 0-0.2-0.1-0.1 0-0.2-0.1-0.1-0.1-0.1-0.2-0.1-0.1-0.1-0.2-0.7-5.8-1-11.6-0.4-5.9-0.4-11.7 0-5.9 0.2-11.7 0.3-5.9 0.9-11.7c2.3-24.5 9.6-59.8 31.7-88.8q0.2-0.2 0.5-0.3 0.3 0 0.5 0.2 0.2 0.1 0.2 0.4 0.1 0.3-0.1 0.5c-21.9 28.7-29.2 63.8-31.5 88.1q-0.6 5.8-0.8 11.6-0.3 5.8-0.3 11.6 0.1 5.8 0.4 11.7 0.4 5.8 1 11.5 0 0.2 0 0.3-0.1 0.1-0.2 0.3 0 0.1-0.2 0.1-0.1 0.1-0.3 0.1z"/>
	<path class="s6" d="m637.9 200.8q-0.2 0-0.4-0.1-0.2-0.2-0.3-0.4 0-0.2 0-0.4 0.1-0.2 0.3-0.3 2.3-1.6 4.8-3.1 2.4-1.4 5-2.7 2.5-1.3 5.1-2.4 2.7-1.1 5.3-2.1c11.2-4.1 28.2-7.8 45.7-2.2q0.2 0 0.4 0.3 0.1 0.2 0 0.5-0.1 0.2-0.3 0.4-0.3 0.1-0.5 0c-17.2-5.4-33.8-1.8-44.8 2.2q-2.6 1-5.2 2.1-2.6 1.1-5.1 2.4-2.5 1.3-4.9 2.7-2.4 1.4-4.7 3-0.1 0-0.1 0-0.1 0-0.1 0.1-0.1 0-0.1 0-0.1 0-0.1 0z"/>
	<path class="s6" d="m607.4 124.9q0-0.2 0.1-0.4 0.1-0.1 0.3-0.2 0.2-0.1 0.4-0.1 0.3 0.1 0.4 0.3 1.8 2.2 3.4 4.5 1.6 2.4 3.1 4.8 1.4 2.5 2.8 5 1.3 2.5 2.4 5.1c4.9 10.9 9.8 27.5 5.5 45.4q0 0.2-0.3 0.4-0.2 0.1-0.5 0.1-0.2-0.1-0.4-0.3-0.1-0.3 0-0.5c4.2-17.5-0.7-33.9-5.5-44.5q-1.1-2.6-2.4-5.1-1.3-2.5-2.8-4.9-1.4-2.4-3-4.7-1.6-2.3-3.3-4.5-0.1 0-0.1-0.1 0 0 0-0.1-0.1 0-0.1-0.1 0 0 0-0.1z"/>
	<path class="s1" d="m63.3 224.1q-2.6-2.6-5.6-4.6-3-1.9-6.3-3.3-3.3-1.4-6.9-2-3.5-0.7-7.1-0.7h-0.4q-2.4 0-4.9-0.3-2.4-0.3-4.8-1-2.3-0.6-4.6-1.5-2.2-1-4.3-2.2l-0.6-0.4 0.4-0.4q1-1 1.9-2.1 0.9-1.1 1.7-2.2 0.8-1.1 1.5-2.3 0.7-1.2 1.3-2.4-0.9 0.8-1.9 1.4-1 0.6-2.2 1-1.1 0.3-2.3 0.4-1.2 0.1-2.4 0-1.2-0.2-2.4-0.6-1.2-0.4-2.3-1.1-1.1-0.7-1.9-1.6-0.9-0.9-1.6-2c-3.5-5.6-7.6-13.6-7.6-19.7q0-3.8 0.8-7.6 0.8-3.8 2.4-7.3 1.5-3.6 3.8-6.7 2.2-3.1 5.1-5.7 1.8-1.7 3.2-3.6 1.5-2 2.4-4.2 1-2.3 1.5-4.7 0.5-2.3 0.5-4.8v-0.4q0-1.6 0.1-3.2 0.1-1.6 0.3-3.2 0.2-1.6 0.5-3.2 0.3-1.6 0.7-3.1l0.1-0.4h0.4q1.1 0 2.1 0 1 0 2.1-0.1 1-0.1 2-0.2 1.1-0.2 2.1-0.4-1-0.1-1.9-0.3-1-0.2-1.9-0.4-0.9-0.3-1.8-0.6-0.9-0.3-1.8-0.7l-0.5-0.2 0.2-0.4c10.8-6.7 35.3-3.3 49.5-35.8 11.5-26.3 52.1 23.4 52.1 52.2 0 2.9-2.9 6.8-0.7 8.7 23.5 21 7.3 34.4 2.2 48-1.3 3.2 1.4 6.7 1.4 10.2q0 0.9-0.1 1.8v0.9l-0.8-0.5q-0.6-0.4-1.1-0.8-0.6-0.4-1.1-0.8-0.6-0.5-1.1-0.9-0.5-0.5-1-1 1 2.3 1.5 4.8 0.5 2.5 0.4 5.1-0.1 2.5-0.8 4.9-0.6 2.5-1.8 4.7c-2.5 4.7-4.8 8-7.1 9.9-3.5 3.1-7.6 5.4-12 6.9-4.5 1.5-9.1 2.2-13.8 2-4.6-0.3-9.2-1.4-13.5-3.3-4.2-1.9-8.1-4.7-11.3-8z"/>
	<path class="s6" d="m102.6 294q0.1 0 0.2-0.1 0.2 0 0.2-0.1 0.1-0.1 0.2-0.2 0-0.1 0.1-0.2 0.6-5.8 1-11.6 0.3-5.9 0.3-11.7 0.1-5.9-0.2-11.7-0.3-5.9-0.8-11.7c-2.3-24.5-9.7-59.8-31.8-88.8q-0.2-0.2-0.4-0.3-0.3 0-0.5 0.2-0.2 0.1-0.3 0.4 0 0.3 0.1 0.5c22 28.7 29.3 63.8 31.5 88.1q0.6 5.8 0.9 11.6 0.3 5.8 0.2 11.6 0 5.9-0.4 11.7-0.3 5.8-1 11.5 0 0.2 0.1 0.3 0 0.2 0.1 0.3 0.1 0.1 0.2 0.1 0.2 0.1 0.3 0.1z"/>
	<path class="s6" d="m84.6 198.8q0.2 0 0.4-0.1 0.1-0.2 0.2-0.4 0.1-0.2 0-0.4-0.1-0.2-0.2-0.3-2.4-1.6-4.8-3.1-2.5-1.4-5-2.7-2.6-1.3-5.2-2.4-2.6-1.1-5.3-2.1c-11.1-4.1-28.1-7.8-45.6-2.2q-0.3 0-0.4 0.3-0.1 0.2-0.1 0.5 0.1 0.2 0.4 0.4 0.2 0.1 0.5 0c17.1-5.4 33.8-1.8 44.8 2.2q2.6 1 5.2 2.1 2.5 1.1 5 2.4 2.5 1.3 5 2.7 2.4 1.4 4.7 3 0 0 0.1 0 0 0 0.1 0.1 0 0 0.1 0 0 0 0.1 0z"/>
	<path class="s6" d="m115 122.9q0-0.2-0.1-0.4-0.1-0.1-0.3-0.2-0.2-0.1-0.4-0.1-0.2 0.1-0.3 0.3-1.8 2.2-3.4 4.5-1.6 2.4-3.1 4.8-1.5 2.5-2.8 5-1.3 2.5-2.5 5.1c-4.9 10.9-9.8 27.5-5.5 45.4q0.1 0.2 0.3 0.4 0.2 0.1 0.5 0.1 0.3-0.1 0.4-0.3 0.2-0.3 0.1-0.5c-4.2-17.5 0.6-33.9 5.4-44.5q1.2-2.6 2.5-5.1 1.3-2.5 2.7-4.9 1.5-2.4 3-4.7 1.6-2.3 3.4-4.5 0 0 0-0.1 0.1 0 0.1-0.1 0 0 0-0.1 0 0 0-0.1z"/>
</svg>